<?xml version="1.0" standalone="no"?>
<!DOCTYPE svg PUBLIC "-//W3C//DTD SVG 20010904//EN"
 "http://www.w3.org/TR/2001/REC-SVG-20010904/DTD/svg10.dtd">
    <svg version="1.0" xmlns="http://www.w3.org/2000/svg" className="smash-icon"
    width="25.000000pt" height="30.000000pt" viewBox="200 150 50.00000 150.000000"
    preserveAspectRatio="xMidYMid meet">
   
   <g transform="translate(0.000000,500.000000) scale(0.100000,-0.100000)"
   fill="white" stroke="none">
   <path d="M2230 3378 c-61 -42 -87 -120 -55 -166 15 -20 13 -26 -27 -99 -23
   -43 -58 -94 -78 -114 -20 -19 -42 -49 -49 -67 -12 -28 -11 -34 8 -58 12 -16
   21 -41 21 -63 0 -42 42 -139 64 -147 9 -3 37 7 64 24 26 16 58 33 70 36 12 4
   22 12 22 18 0 5 14 -5 31 -23 27 -29 30 -39 26 -73 -4 -30 1 -53 24 -101 33
   -71 36 -107 13 -180 l-17 -53 -33 14 c-19 8 -46 13 -61 12 -75 -5 -94 1 -105
   32 -13 40 -39 53 -65 35 -42 -30 -113 -107 -119 -130 -13 -54 20 -71 66 -35
   14 11 33 20 42 20 9 0 20 4 23 10 9 14 63 1 129 -31 l58 -29 -37 -32 c-41 -36
   -65 -76 -65 -108 0 -24 26 -27 51 -4 10 9 31 17 47 18 15 1 41 10 58 21 25 17
   49 20 181 23 195 5 188 -1 188 166 0 88 -5 133 -17 166 -9 25 -19 65 -23 90
   -3 24 -11 47 -16 51 -9 5 -18 62 -20 131 0 9 -7 22 -15 29 -8 6 -14 21 -14 33
   -1 11 -7 32 -15 46 -8 14 -14 30 -15 35 0 12 130 3 176 -12 19 -7 61 -8 110
   -3 48 5 86 4 97 -2 10 -5 25 -7 32 -4 9 3 12 0 9 -9 -4 -10 0 -12 15 -8 25 6
   38 47 21 68 -8 10 -25 12 -59 8 -32 -3 -74 2 -129 16 -45 11 -95 21 -111 21
   -23 0 -30 5 -33 23 -2 16 -11 23 -33 25 -16 1 -48 7 -70 13 -38 9 -104 2 -146
   -15 -11 -5 -19 -1 -23 11 -4 10 -2 19 3 21 28 9 3 92 -27 92 -9 0 -29 6 -44
   14 -25 13 -30 12 -60 -7 -50 -34 -65 -67 -48 -106 9 -22 21 -34 41 -38 43 -8
   36 -18 -132 -178 -9 -8 -20 -15 -26 -15 -16 0 -43 74 -41 113 1 19 -2 38 -5
   44 -6 10 50 128 94 198 19 29 33 40 53 41 59 4 106 64 106 136 0 39 -7 51 -37
   67 -30 15 -35 14 -73 -11z m308 -1025 c6 -21 20 -55 31 -76 16 -31 17 -37 5
   -33 -9 3 -25 1 -37 -6 -12 -6 -37 -15 -55 -19 -29 -6 -32 -5 -26 9 4 10 11 35
   17 57 13 54 35 105 45 105 5 0 14 -17 20 -37z"/>
   </g>
   </svg>
