<?xml version="1.0" standalone="no"?>
<!DOCTYPE svg PUBLIC "-//W3C//DTD SVG 20010904//EN"
 "http://www.w3.org/TR/2001/REC-SVG-20010904/DTD/svg10.dtd">
<svg version="1.0" xmlns="http://www.w3.org/2000/svg"
 width="190.000000pt" height="276.000000pt" viewBox="0 0 190.000000 276.000000"
 preserveAspectRatio="xMidYMid meet">

<g transform="translate(0.000000,276.000000) scale(0.100000,-0.100000)"
fill="white" stroke="none">
<path d="M0 1380 l0 -1380 950 0 950 0 0 1380 0 1380 -950 0 -950 0 0 -1380z
m1538 1320 c44 -25 72 -65 72 -104 0 -110 -152 -230 -307 -243 -80 -6 -128 6
-174 44 l-30 25 -197 -76 c-226 -87 -211 -75 -335 -266 -138 -213 -188 -333
-173 -414 11 -58 40 -70 160 -69 282 2 630 135 985 375 227 153 228 154 238
145 12 -12 -46 -114 -108 -192 -208 -258 -474 -432 -778 -507 -128 -32 -338
-32 -441 0 -237 74 -338 258 -246 447 29 59 168 210 246 267 l35 26 -40 -2
c-36 -1 -40 1 -40 24 0 23 11 30 115 72 63 26 128 47 143 47 15 1 118 36 227
78 l200 77 0 36 c0 44 44 117 91 153 113 84 266 108 357 57z m-503 -519 c68
-30 125 -113 125 -181 0 -37 -24 -94 -53 -127 -98 -111 -261 -91 -329 41 -31
60 -22 152 18 203 60 76 157 102 239 64z m279 -704 c101 -132 161 -456 126
-675 -53 -332 -287 -567 -680 -683 -157 -46 -510 -74 -510 -39 0 13 156 79
250 105 52 15 130 45 173 68 189 100 367 288 408 430 l8 29 -27 -18 c-81 -53
-145 -86 -217 -109 -70 -24 -92 -27 -180 -23 -89 4 -107 8 -164 37 -188 96
-293 311 -236 482 32 97 134 179 223 179 25 0 27 -7 7 -34 -8 -10 -24 -48 -36
-84 -41 -125 -8 -286 72 -344 60 -45 164 -31 231 30 44 39 101 147 113 214 6
33 17 44 75 83 105 70 255 239 306 348 10 20 21 37 25 37 5 0 19 -15 33 -33z"/>
<path d="M1405 2693 c-75 -11 -124 -26 -129 -39 -3 -8 -9 -13 -14 -10 -4 2
-14 1 -22 -4 -11 -7 -12 -18 -3 -54 11 -50 3 -53 -17 -6 -12 30 -30 41 -30 19
0 -6 11 -42 25 -80 13 -38 22 -69 20 -69 -3 0 -19 28 -36 63 -41 80 -49 57
-14 -38 35 -98 40 -101 125 -88 87 14 153 45 207 99 68 68 74 142 15 180 -28
18 -92 32 -127 27z"/>
<path d="M1126 2506 c-7 -30 0 -54 27 -83 39 -44 48 -26 17 38 -35 75 -36 76
-44 45z"/>
<path d="M405 2006 c-150 -159 -191 -287 -117 -361 l27 -27 8 68 c13 123 52
226 121 324 69 97 55 96 -39 -4z"/>
<path d="M356 1117 c-35 -45 -46 -80 -46 -141 0 -90 30 -150 93 -182 32 -17
33 -15 7 36 -41 81 -48 217 -15 303 12 29 -12 19 -39 -16z"/>
<path d="M1287 645 c-27 -51 -73 -125 -103 -165 -30 -40 -53 -75 -50 -77 9 -9
91 74 126 129 33 51 88 193 79 203 -2 2 -26 -38 -52 -90z"/>
</g>
</svg>
